<svg xmlns="http://www.w3.org/2000/svg"><symbol id="icon-basket" viewBox="0 0 30 28"><path d="M29.875 4.25c-.125-.125-.25-.25-.5-.25H5.625L5 .75c0-.25-.375-.5-.625-.5H.625C.25.25 0 .5 0 .875s.25.625.625.625h3.25l3 15.25c.375 2 2.25 3.5 4.25 3.5H25.5c.375 0 .625-.25.625-.625S25.875 19 25.5 19H11.25c-1 0-2-.5-2.5-1.375l18.25-2.5c.25 0 .5-.25.5-.5l2.5-10s0-.25-.125-.375Zm-3.5 9.75-18.25 2.375-2.25-11.25H28.5L26.375 14Zm-15.75 7.5A3.095 3.095 0 0 0 7.5 24.625a3.095 3.095 0 0 0 3.125 3.125 3.095 3.095 0 0 0 3.125-3.125 3.095 3.095 0 0 0-3.125-3.125Zm0 5c-1 0-1.875-.875-1.875-1.875s.875-1.875 1.875-1.875 1.875.875 1.875 1.875-.875 1.875-1.875 1.875Zm12.5-5A3.095 3.095 0 0 0 20 24.625a3.095 3.095 0 0 0 3.125 3.125 3.095 3.095 0 0 0 3.125-3.125 3.095 3.095 0 0 0-3.125-3.125Zm0 5c-1 0-1.875-.875-1.875-1.875s.875-1.875 1.875-1.875S25 23.625 25 24.625s-.875 1.875-1.875 1.875Z"/></symbol><symbol id="icon-compare" viewBox="0 0 30 26"><path d="m29.555 15.632-3.422-7.33 1.477.424a.61.61 0 1 0 .337-1.174L17.676 4.604l.003-.132a2.678 2.678 0 0 0-5.017-1.307L2.39.218a.611.611 0 0 0-.337 1.175l2.028.582L.409 9.838a.611.611 0 0 0-.409.576 4.9 4.9 0 0 0 8.371 3.46 4.843 4.843 0 0 0 1.462-3.46.611.611 0 0 0-.445-.588L5.976 2.52l6.348 1.821a2.683 2.683 0 0 0 2.065 2.74v14.86c-2.096 0-3.858-.032-4.155.03a2.463 2.463 0 0 0-1.956 2.395v.855c.01.345.29.621.635.626h12.174a.645.645 0 0 0 .635-.626v-.855a2.463 2.463 0 0 0-1.955-2.396c-.206-.06-2.15-.029-4.156-.029V7.08a2.689 2.689 0 0 0 1.727-1.301l6.917 1.984-3.679 7.88a.61.61 0 0 0-.41.577 4.9 4.9 0 0 0 8.372 3.459A4.844 4.844 0 0 0 30 16.219a.611.611 0 0 0-.445-.587ZM4.9 3.076l3.127 6.698H1.775L4.9 3.076Zm0 10.988a3.654 3.654 0 0 1-3.628-3.068h7.284A3.707 3.707 0 0 1 4.9 14.064Zm15.6 10.3v.26h-11v-.26c0-.673.572-1.207 1.246-1.207h8.506c.674 0 1.247.534 1.247 1.208ZM15 5.93a1.458 1.458 0 1 1 1.415-1.116.608.608 0 0 0-.034.12A1.459 1.459 0 0 1 15 5.929Zm13.194 9.65H21.94l3.127-6.697 3.127 6.697Zm-3.127 4.29c-1.8.01-3.34-1.29-3.628-3.067h7.284a3.707 3.707 0 0 1-3.656 3.067Z"/></symbol><symbol id="icon-like" viewBox="0 0 30 24"><path d="M29.536 4.826C28.546 2.14 26.174.383 23.348.24l-.033-.001h-.414c-3.568 0-6.633 2.197-7.912 5.309-1.28-3.113-4.344-5.31-7.912-5.31H6.63C3.81.383 1.446 2.142.46 4.83c-1.017 2.775-.324 5.742 1.807 7.74l11.21 10.603a2.3 2.3 0 0 0 1.539.59c.554 0 1.104-.2 1.526-.6l1.704-1.608c.428-.428.67-.992.682-1.588a2.2 2.2 0 0 0-.65-1.612.638.638 0 1 0-.902.902.972.972 0 0 1-.018 1.382l-1.692 1.596c-.362.343-.95.337-1.325 0L3.142 11.64C1.39 9.996.823 7.554 1.66 5.268c.804-2.194 2.727-3.632 5.02-3.754h.398c4.01 0 7.274 3.263 7.274 7.274a.638.638 0 0 0 1.276 0c0-4.011 3.263-7.274 7.274-7.274h.398c2.3.123 4.23 1.56 5.04 3.754.84 2.278.275 4.72-1.487 6.387l-3.573 3.573a2.23 2.23 0 0 0-.666 1.583c0 .593.237 1.155.666 1.584a.638.638 0 0 0 .902-.902.962.962 0 0 1-.291-.682c0-.251.103-.493.291-.681l3.56-3.56c2.127-2.012 2.814-4.979 1.795-7.744Z"/></symbol><symbol id="icon-search" viewBox="0 0 19 18"><g clip-path="url(#a)"><path d="M18.815 16.83 13.58 11.6a7.082 7.082 0 0 0 1.59-4.475C15.17 3.196 11.97 0 8.038 0 4.103 0 .903 3.196.903 7.125s3.2 7.125 7.134 7.125a7.103 7.103 0 0 0 4.481-1.589l5.235 5.23a.376.376 0 0 0 .531 0l.531-.531a.375.375 0 0 0 0-.53ZM8.037 12.75c-3.106 0-5.632-2.523-5.632-5.625S4.931 1.5 8.037 1.5c3.105 0 5.632 2.523 5.632 5.625s-2.527 5.625-5.632 5.625Z"/></g><defs><clipPath id="a"><path transform="translate(.903)" d="M0 0h18.022v18H0z"/></clipPath></defs></symbol><symbol id="icon-user" viewBox="0 0 20 20"><path d="M19.993 9.607a.42.42 0 0 0-.44-.41.425.425 0 0 0-.41.44 9.129 9.129 0 0 1-2.572 6.719 9.063 9.063 0 0 1-6.573 2.793.426.426 0 0 0 0 .851 9.907 9.907 0 0 0 7.185-3.053 9.974 9.974 0 0 0 2.81-7.34Z"/><path d="M19.99 9.807a9.931 9.931 0 0 0-3.216-7.153C12.967-.885 7.005-.885 3.2 2.654A9.94 9.94 0 0 0 .002 9.81a9.928 9.928 0 0 0 2.932 7.258.425.425 0 0 0 .61-.008c.117-.124.261-.273.318-.327a.439.439 0 0 0 .056-.048l.94-.938h3.055a.849.849 0 0 0 .795-.544.823.823 0 0 0-.196-.906 4.33 4.33 0 0 1-1.28-3.08V7.559c0-.372.142-.709.408-.975.259-.26.614-.407.975-.407h2.743c.372 0 .71.14.976.407.259.258.407.614.407.975v3.658a4.342 4.342 0 0 1-1.292 3.094.858.858 0 0 0-.143.926c.138.315.435.51.776.51h3.232a.426.426 0 0 0 0-.851l-3.226.005a.04.04 0 0 1-.007-.02 5.174 5.174 0 0 0 1.51-3.664V7.559c0-.585-.239-1.16-.656-1.577a2.216 2.216 0 0 0-1.577-.656H8.615c-.585 0-1.16.24-1.577.656a2.218 2.218 0 0 0-.656 1.577v3.658c0 1.388.543 2.696 1.531 3.679H4.681a.426.426 0 0 0-.301.125l-1.057 1.057a1.835 1.835 0 0 0-.086.077 9.077 9.077 0 0 1-2.384-6.33A9.097 9.097 0 0 1 3.78 3.277C7.26.04 12.713.04 16.195 3.277a9.09 9.09 0 0 1 2.945 6.546 9.071 9.071 0 0 1-2.68 6.644.425.425 0 0 0 .6.601 9.914 9.914 0 0 0 2.93-7.26Z"/></symbol><symbol id="icon-wezom_logo" viewBox="0 0 114 41"><g clip-path="url(#a)" fill-rule="evenodd" clip-rule="evenodd"><path d="M111.763 2.453a7.437 7.437 0 0 0-10.488 0l-24.89 25.336a7.86 7.86 0 0 0 0 10.933 7.41 7.41 0 0 0 5.33 2.269 7.395 7.395 0 0 0 5.332-2.269l24.716-25.3a7.895 7.895 0 0 0 0-10.969Z"/><path d="M51.704 2.453A7.445 7.445 0 0 1 57.034.2a7.43 7.43 0 0 1 5.332 2.253l24.716 25.336a7.86 7.86 0 0 1 0 10.933 7.41 7.41 0 0 1-5.331 2.269 7.396 7.396 0 0 1-5.332-2.269l-24.715-25.3a7.86 7.86 0 0 1 0-10.969Z"/><path d="M62.401 2.453A7.41 7.41 0 0 0 57.07.185a7.396 7.396 0 0 0-5.331 2.268L27.023 27.789a7.86 7.86 0 0 0 0 10.933 7.445 7.445 0 0 0 5.331 2.253 7.43 7.43 0 0 0 5.331-2.253l24.716-25.336a7.86 7.86 0 0 0 0-10.933Z"/><path d="M2.202 2.278A7.446 7.446 0 0 1 7.534.025a7.43 7.43 0 0 1 5.33 2.253L37.58 27.614a7.86 7.86 0 0 1 0 10.933 7.445 7.445 0 0 1-5.33 2.253 7.43 7.43 0 0 1-5.332-2.253L2.202 13.211a7.86 7.86 0 0 1 0-10.933Z"/></g><defs><clipPath id="a"><path d="M0 0h114v41H0z"/></clipPath></defs></symbol></svg>